<svg xmlns="http://www.w3.org/2000/svg" xmlns:xlink="http://www.w3.org/1999/xlink" width="500" zoomAndPan="magnify" viewBox="0 0 375 374.999991" height="500" preserveAspectRatio="xMidYMid meet" version="1.0"><defs><clipPath id="a61cb9e083"><path d="M 187.5 0 C 83.945312 0 0 83.945312 0 187.5 C 0 291.054688 83.945312 375 187.5 375 C 291.054688 375 375 291.054688 375 187.5 C 375 83.945312 291.054688 0 187.5 0 Z M 187.5 0 " clip-rule="nonzero"/></clipPath><clipPath id="5a4663ff0d"><path d="M 0 0 L 375 0 L 375 375 L 0 375 Z M 0 0 " clip-rule="nonzero"/></clipPath><clipPath id="274582d731"><path d="M 187.5 0 C 83.945312 0 0 83.945312 0 187.5 C 0 291.054688 83.945312 375 187.5 375 C 291.054688 375 375 291.054688 375 187.5 C 375 83.945312 291.054688 0 187.5 0 Z M 187.5 0 " clip-rule="nonzero"/></clipPath><clipPath id="3366a270a2"><rect x="0" width="375" y="0" height="375"/></clipPath><clipPath id="9699c18bdf"><path d="M 84.261719 64.53125 L 290.511719 64.53125 L 290.511719 310.53125 L 84.261719 310.53125 Z M 84.261719 64.53125 " clip-rule="nonzero"/></clipPath><clipPath id="266fc6dfc2"><path d="M 145.632812 157 L 261.132812 157 L 261.132812 218.761719 L 145.632812 218.761719 Z M 145.632812 157 " clip-rule="nonzero"/></clipPath></defs><g clip-path="url(#a61cb9e083)"><g transform="matrix(1, 0, 0, 1, 0, 0)"><g clip-path="url(#3366a270a2)"><g clip-path="url(#5a4663ff0d)"><g clip-path="url(#274582d731)"><rect x="-82.5" width="540" fill="#c4b2fa" height="539.999987" y="-82.499998" fill-opacity="1"/></g></g></g></g></g><g clip-path="url(#9699c18bdf)"><path fill="#232124" d="M 96.46875 64.523438 L 84.265625 64.570312 L 84.265625 310.457031 L 145.417969 310.457031 L 145.417969 64.628906 L 133.851562 64.507812 C 127.488281 64.441406 119.21875 64.40625 115.476562 64.429688 C 111.734375 64.457031 103.179688 64.496094 96.46875 64.523438 M 192.964844 65.117188 C 202.269531 68.679688 212.007812 75.84375 218.375 83.816406 C 219.964844 85.804688 224.128906 92.027344 225.558594 94.546875 C 229.125 100.835938 231.761719 109.652344 232.785156 118.738281 C 233.34375 123.703125 233.425781 126.871094 233.382812 141.917969 L 233.339844 157.117188 L 214.816406 157.117188 C 204.625 157.117188 191.492188 157.171875 185.628906 157.238281 L 174.96875 157.359375 L 165.367188 167.992188 L 155.765625 178.621094 L 155.761719 187.113281 L 155.761719 195.601562 L 176.980469 217.671875 L 178.757812 217.789062 C 179.734375 217.855469 192.414062 217.910156 206.9375 217.910156 L 233.339844 217.910156 L 233.292969 255.609375 C 233.269531 276.34375 233.308594 297.148438 233.386719 301.839844 L 233.523438 310.367188 L 261.765625 310.414062 C 288.53125 310.457031 290.019531 310.445312 290.15625 310.140625 C 290.238281 309.96875 290.335938 286.320312 290.375 257.597656 L 290.441406 205.371094 L 289.445312 204.246094 C 288.894531 203.625 285.296875 199.695312 281.445312 195.503906 C 277.59375 191.316406 274.441406 187.84375 274.441406 187.785156 C 274.441406 187.726562 278.035156 183.773438 282.429688 178.996094 L 290.414062 170.316406 L 290.390625 158.863281 C 290.378906 152.5625 290.308594 138.875 290.234375 128.445312 L 290.097656 109.480469 L 289.621094 106.863281 C 288.34375 99.875 286.390625 94.136719 283.675781 89.417969 C 282.503906 87.382812 279.324219 82.820312 277.554688 80.636719 C 275.28125 77.828125 271.199219 74.214844 268.152344 72.3125 C 261.585938 68.214844 254.140625 65.835938 244.734375 64.835938 C 242.46875 64.59375 238.097656 64.539062 216.554688 64.46875 L 191.058594 64.386719 Z M 192.964844 65.117188 " fill-opacity="1" fill-rule="evenodd"/></g><g clip-path="url(#266fc6dfc2)"><path fill="#ffffff" d="M 159.566406 172.257812 C 151.902344 180.644531 145.636719 187.527344 145.640625 187.550781 C 145.640625 187.574219 151.898438 194.429688 159.546875 202.785156 L 173.445312 217.976562 L 203.894531 217.976562 L 211.554688 195.007812 L 219.21875 172.035156 L 226.21875 179.75 C 230.066406 183.996094 233.21875 187.496094 233.21875 187.535156 C 233.21875 187.570312 227.074219 194.367188 219.5625 202.632812 C 212.054688 210.898438 205.84375 217.742188 205.769531 217.839844 L 205.628906 218.015625 L 233.371094 218.015625 L 247.21875 202.769531 C 254.835938 194.382812 261.082031 187.492188 261.097656 187.449219 C 261.113281 187.410156 261.09375 187.398438 261.054688 187.421875 C 261.019531 187.445312 254.773438 180.613281 247.179688 172.242188 L 233.371094 157.019531 L 218.175781 157.015625 L 202.984375 157.011719 L 195.332031 179.976562 C 191.125 192.605469 187.660156 202.9375 187.640625 202.933594 C 187.617188 202.929688 184.4375 199.464844 180.570312 195.230469 L 173.546875 187.535156 L 173.769531 187.292969 C 173.894531 187.160156 180.050781 180.421875 187.445312 172.320312 C 194.839844 164.21875 201.015625 157.457031 201.164062 157.300781 L 201.4375 157.011719 L 173.5 157.011719 Z M 159.566406 172.257812 " fill-opacity="1" fill-rule="evenodd"/></g></svg>